<svg width="19" height="11" viewBox="0 0 19 11" fill="none" xmlns="http://www.w3.org/2000/svg">
<path d="M8.52458 4.00829L6.64598 5.89779L8.48751 7.75L7.59764 8.62017L5.76847 6.78039L3.90223 8.65746L3.02472 7.72514L4.86625 5.87293L3 3.99586L3.86515 3.10083L5.74375 4.99033L7.62236 3.10083L8.52458 4.00829Z" fill="black"/>
<path d="M12.3169 8.65746H16V10H10.1912V8.84392L12.4776 6.60635C13.5776 5.53729 14.3562 4.66713 14.3562 3.73481C14.3562 3.02624 13.9113 2.4047 12.9843 2.4047C12.008 2.4047 11.5012 3.0884 11.3035 4.20718L9.86981 3.89641C10.0305 2.19337 11.2788 1 13.0091 1C14.8382 1 15.8764 2.25552 15.8764 3.70994C15.8764 5.23895 14.7764 6.30801 13.2315 7.78729L12.3169 8.65746Z" fill="black"/>
</svg>
