<svg width="12" height="47" viewBox="0 0 12 47" fill="none" xmlns="http://www.w3.org/2000/svg">
<path d="M9.1235 40.1595C9.1235 41.499 8.4585 42.5155 7.1475 42.8195L6.8435 41.9265C7.689 41.727 8.278 41.1475 8.278 40.1595C8.278 39.39 7.8885 38.8295 7.157 38.8295C6.4065 38.8295 6.188 39.5325 5.9125 40.4255C5.637 41.347 5.3045 42.3635 4.003 42.3635C2.92 42.3635 2.1315 41.461 2.1315 40.2735C2.1315 39.067 2.787 38.307 3.661 38.098L3.9555 38.953C3.3285 39.1715 2.977 39.5895 2.977 40.321C2.977 40.9955 3.414 41.4325 3.965 41.4325C4.668 41.4325 4.877 40.796 5.0955 40.0645C5.409 39.0005 5.789 37.908 7.1285 37.908C8.3065 37.908 9.1235 38.801 9.1235 40.1595ZM9 33.8483L6.682 35.4348L7.29 36.0333H9V36.9263H2.255V36.0333H6.2355L4.231 34.1048V33.0123L6.055 34.8173L9 32.7843V33.8483ZM3.433 31.6361C3.433 31.9686 3.148 32.2726 2.7965 32.2726C2.4545 32.2726 2.1695 31.9686 2.1695 31.6361C2.1695 31.3131 2.4545 31.0091 2.7965 31.0091C3.148 31.0091 3.433 31.3131 3.433 31.6361ZM9 32.0826H4.231V31.1896H9V32.0826ZM4.1075 27.5304C4.1075 26.2384 5.1525 25.4119 6.6155 25.4119C8.0785 25.4119 9.1235 26.2384 9.1235 27.5304C9.1235 28.0814 8.905 28.5659 8.5155 28.9269H10.615V29.8199H4.231V28.9269H4.706C4.3165 28.5659 4.1075 28.0814 4.1075 27.5304ZM8.316 27.6159C8.316 26.8369 7.6225 26.3049 6.6155 26.3049C5.6085 26.3049 4.915 26.8369 4.915 27.6159C4.915 28.4139 5.6275 28.9649 6.6155 28.9649C7.6415 28.9649 8.316 28.4139 8.316 27.6159ZM9 21.9387H2.255L2.255 20.9982H9V21.9387ZM4.1075 17.3003C4.1075 16.1698 4.858 15.4763 6.112 15.4763H9V16.3693H6.2355C5.371 16.3693 4.934 16.8158 4.934 17.4713C4.934 18.1363 5.3995 18.5733 6.264 18.5733H9V19.4663H4.231V18.6208H4.763C4.345 18.3453 4.1075 17.9083 4.1075 17.3003ZM4.1075 11.898C4.1075 10.606 5.1525 9.77954 6.6155 9.77954C8.0785 9.77954 9.1235 10.606 9.1235 11.898C9.1235 12.449 8.905 12.9335 8.5155 13.2945H10.615V14.1875H4.231V13.2945H4.706C4.3165 12.9335 4.1075 12.449 4.1075 11.898ZM8.316 11.9835C8.316 11.2045 7.6225 10.6725 6.6155 10.6725C5.6085 10.6725 4.915 11.2045 4.915 11.9835C4.915 12.7815 5.6275 13.3325 6.6155 13.3325C7.6415 13.3325 8.316 12.7815 8.316 11.9835ZM4.231 5.65535V4.76235H9L9 5.60785H8.4775C8.8955 5.87385 9.1235 6.31085 9.1235 6.90935C9.1235 8.03985 8.392 8.73335 7.1475 8.73335H4.231V7.84035H7.0335C7.879 7.84035 8.297 7.41285 8.297 6.74785C8.297 6.09235 7.8505 5.65535 7.005 5.65535H4.231ZM8.0785 0.708597L8.7435 0.376097C9.019 0.718098 9.114 1.0981 9.114 1.5161C9.114 2.3996 8.6485 3.0646 7.6035 3.0646H4.9435V3.9291H4.231V3.0646H2.768L2.768 2.1716H4.231V0.708597H4.9435V2.1716H7.442C8.107 2.1716 8.3065 1.8771 8.3065 1.4401C8.3065 1.1266 8.2115 0.927097 8.0785 0.708597Z" fill="black"/>
</svg>
