<svg width="12" height="61" viewBox="0 0 12 61" fill="none" xmlns="http://www.w3.org/2000/svg">
<path d="M5.39 53.763C5.675 53.117 6.226 52.699 7.024 52.699C8.221 52.699 9 53.6395 9 54.903V57.202H2.255V55.169C2.255 53.896 3.015 53.079 4.079 53.079C4.668 53.079 5.1145 53.326 5.39 53.763ZM3.11 55.169V56.2615H5.067V55.169C5.067 54.4185 4.6775 54.01 4.079 54.01C3.49 54.01 3.11 54.4185 3.11 55.169ZM8.145 54.9505C8.145 54.1715 7.6985 53.6395 7.024 53.6395C6.34 53.6395 5.8935 54.1715 5.8935 54.9505V56.2615H8.145V54.9505ZM4.231 48.6294V47.7269L9.1425 49.4464C10.2825 49.8454 10.7005 50.3964 10.7005 51.2514C10.7005 51.7739 10.558 52.1824 10.387 52.4484L9.646 52.0779C9.76 51.8974 9.874 51.5934 9.874 51.2609C9.874 50.8334 9.684 50.5104 8.962 50.2634L8.8575 50.2254L4.231 52.0779V51.1184L7.6035 49.7979L4.231 48.6294ZM4.1075 44.5899C4.1075 43.2979 5.1525 42.4714 6.6155 42.4714C8.0785 42.4714 9.1235 43.2979 9.1235 44.5899C9.1235 45.1409 8.905 45.6254 8.5155 45.9864H10.615V46.8794H4.231V45.9864H4.706C4.3165 45.6254 4.1075 45.1409 4.1075 44.5899ZM8.316 44.6754C8.316 43.8964 7.6225 43.3644 6.6155 43.3644C5.6085 43.3644 4.915 43.8964 4.915 44.6754C4.915 45.4734 5.6275 46.0244 6.6155 46.0244C7.6415 46.0244 8.316 45.4734 8.316 44.6754ZM4.098 39.6107C4.098 38.4612 4.725 37.6822 5.9505 37.6822H9V38.5087H8.506C8.8955 38.7462 9.133 39.1832 9.133 39.8007C9.133 40.8742 8.5155 41.5202 7.6415 41.5202C6.7295 41.5202 6.188 40.8267 6.188 39.7152V38.5467H6.0265C5.276 38.5467 4.877 38.9172 4.877 39.6202C4.877 40.2567 5.2855 40.6082 5.7415 40.7602L5.485 41.5772C4.592 41.3017 4.098 40.5417 4.098 39.6107ZM8.354 39.6772C8.354 39.0977 8.012 38.5467 7.2235 38.5467H6.9005V39.6202C6.9005 40.3137 7.195 40.6462 7.632 40.6462C8.0785 40.6462 8.354 40.3137 8.354 39.6772ZM9.114 34.7908C9.114 35.7218 8.715 36.6053 7.651 36.7953L7.423 35.9878C7.974 35.8358 8.3445 35.4558 8.3445 34.7813C8.3445 34.3158 8.1355 33.9453 7.67 33.9453C7.2235 33.9453 7.0905 34.3253 6.9195 34.9713C6.739 35.6648 6.5015 36.5198 5.5135 36.5198C4.706 36.5198 4.1075 35.8453 4.1075 34.8953C4.1075 33.9643 4.611 33.3848 5.257 33.2518L5.523 34.0308C5.162 34.1448 4.8675 34.4393 4.8675 34.9333C4.8675 35.3798 5.1145 35.6458 5.4565 35.6458C5.8555 35.6458 5.979 35.2753 6.131 34.7148C6.359 33.8883 6.5965 33.0808 7.613 33.0808C8.5725 33.0808 9.114 33.8218 9.114 34.7908ZM9.114 30.4861C9.114 31.4171 8.715 32.3006 7.651 32.4906L7.423 31.6831C7.974 31.5311 8.3445 31.1511 8.3445 30.4766C8.3445 30.0111 8.1355 29.6406 7.67 29.6406C7.2235 29.6406 7.0905 30.0206 6.9195 30.6666C6.739 31.3601 6.5015 32.2151 5.5135 32.2151C4.706 32.2151 4.1075 31.5406 4.1075 30.5906C4.1075 29.6596 4.611 29.0801 5.257 28.9471L5.523 29.7261C5.162 29.8401 4.8675 30.1346 4.8675 30.6286C4.8675 31.0751 5.1145 31.3411 5.4565 31.3411C5.8555 31.3411 5.979 30.9706 6.131 30.4101C6.359 29.5836 6.5965 28.7761 7.613 28.7761C8.5725 28.7761 9.114 29.5171 9.114 30.4861ZM9 25.3884H2.255V24.4479H9V25.3884ZM4.1075 20.7501C4.1075 19.6196 4.858 18.9261 6.112 18.9261H9V19.8191H6.2355C5.371 19.8191 4.934 20.2656 4.934 20.9211C4.934 21.5861 5.3995 22.0231 6.264 22.0231H9V22.9161H4.231V22.0706H4.763C4.345 21.7951 4.1075 21.3581 4.1075 20.7501ZM4.1075 15.3477C4.1075 14.0557 5.1525 13.2292 6.6155 13.2292C8.0785 13.2292 9.1235 14.0557 9.1235 15.3477C9.1235 15.8987 8.905 16.3832 8.5155 16.7442H10.615V17.6372H4.231V16.7442H4.706C4.3165 16.3832 4.1075 15.8987 4.1075 15.3477ZM8.316 15.4332C8.316 14.6542 7.6225 14.1222 6.6155 14.1222C5.6085 14.1222 4.915 14.6542 4.915 15.4332C4.915 16.2312 5.6275 16.7822 6.6155 16.7822C7.6415 16.7822 8.316 16.2312 8.316 15.4332ZM4.231 9.10506V8.21206H9V9.05756H8.4775C8.8955 9.32356 9.1235 9.76056 9.1235 10.3591C9.1235 11.4896 8.392 12.1831 7.1475 12.1831H4.231V11.2901H7.0335C7.879 11.2901 8.297 10.8626 8.297 10.1976C8.297 9.54206 7.8505 9.10506 7.005 9.10506H4.231ZM8.0785 4.1583L8.7435 3.8258C9.019 4.1678 9.114 4.5478 9.114 4.9658C9.114 5.8493 8.6485 6.5143 7.6035 6.5143H4.9435V7.3788H4.231V6.5143H2.768L2.768 5.6213H4.231V4.1583H4.9435V5.6213H7.442C8.107 5.6213 8.3065 5.3268 8.3065 4.8898C8.3065 4.5763 8.2115 4.3768 8.0785 4.1583Z" fill="black"/>
</svg>
