<svg width="12" height="33" viewBox="0 0 12 33" fill="none" xmlns="http://www.w3.org/2000/svg">
<path d="M5.39 25.763C5.675 25.117 6.226 24.699 7.024 24.699C8.221 24.699 9 25.6395 9 26.903V29.202H2.255L2.255 27.169C2.255 25.896 3.015 25.079 4.079 25.079C4.668 25.079 5.1145 25.326 5.39 25.763ZM3.11 27.169L3.11 28.2615H5.067V27.169C5.067 26.4185 4.6775 26.01 4.079 26.01C3.49 26.01 3.11 26.4185 3.11 27.169ZM8.145 26.9505C8.145 26.1715 7.6985 25.6395 7.024 25.6395C6.34 25.6395 5.8935 26.1715 5.8935 26.9505V28.2615H8.145V26.9505ZM4.231 20.6294V19.7269L9.1425 21.4464C10.2825 21.8454 10.7005 22.3964 10.7005 23.2514C10.7005 23.7739 10.558 24.1824 10.387 24.4484L9.646 24.0779C9.76 23.8974 9.874 23.5934 9.874 23.2609C9.874 22.8334 9.684 22.5104 8.962 22.2634L8.8575 22.2254L4.231 24.0779V23.1184L7.6035 21.7979L4.231 20.6294ZM4.1075 16.5899C4.1075 15.2979 5.1525 14.4714 6.6155 14.4714C8.0785 14.4714 9.1235 15.2979 9.1235 16.5899C9.1235 17.1409 8.905 17.6254 8.5155 17.9864H10.615V18.8794H4.231V17.9864H4.706C4.3165 17.6254 4.1075 17.1409 4.1075 16.5899ZM8.316 16.6754C8.316 15.8964 7.6225 15.3644 6.6155 15.3644C5.6085 15.3644 4.915 15.8964 4.915 16.6754C4.915 17.4734 5.6275 18.0244 6.6155 18.0244C7.6415 18.0244 8.316 17.4734 8.316 16.6754ZM4.098 11.6107C4.098 10.4612 4.725 9.68225 5.9505 9.68225H9V10.5087H8.506C8.8955 10.7462 9.133 11.1832 9.133 11.8007C9.133 12.8742 8.5155 13.5202 7.6415 13.5202C6.7295 13.5202 6.188 12.8267 6.188 11.7152V10.5467H6.0265C5.276 10.5467 4.877 10.9172 4.877 11.6202C4.877 12.2567 5.2855 12.6082 5.7415 12.7602L5.485 13.5772C4.592 13.3017 4.098 12.5417 4.098 11.6107ZM8.354 11.6772C8.354 11.0977 8.012 10.5467 7.2235 10.5467H6.9005V11.6202C6.9005 12.3137 7.195 12.6462 7.632 12.6462C8.0785 12.6462 8.354 12.3137 8.354 11.6772ZM9.114 6.79076C9.114 7.72176 8.715 8.60526 7.651 8.79526L7.423 7.98776C7.974 7.83576 8.3445 7.45576 8.3445 6.78126C8.3445 6.31576 8.1355 5.94526 7.67 5.94526C7.2235 5.94526 7.0905 6.32526 6.9195 6.97126C6.739 7.66476 6.5015 8.51976 5.5135 8.51976C4.706 8.51976 4.1075 7.84526 4.1075 6.89526C4.1075 5.96426 4.611 5.38476 5.257 5.25176L5.523 6.03076C5.162 6.14476 4.8675 6.43926 4.8675 6.93326C4.8675 7.37976 5.1145 7.64576 5.4565 7.64576C5.8555 7.64576 5.979 7.27526 6.131 6.71476C6.359 5.88826 6.5965 5.08076 7.613 5.08076C8.5725 5.08076 9.114 5.82176 9.114 6.79076ZM9.114 2.48607C9.114 3.41707 8.715 4.30057 7.651 4.49057L7.423 3.68307C7.974 3.53107 8.3445 3.15107 8.3445 2.47657C8.3445 2.01107 8.1355 1.64057 7.67 1.64057C7.2235 1.64057 7.0905 2.02057 6.9195 2.66657C6.739 3.36007 6.5015 4.21507 5.5135 4.21507C4.706 4.21507 4.1075 3.54057 4.1075 2.59057C4.1075 1.65957 4.611 1.08007 5.257 0.94707L5.523 1.72607C5.162 1.84007 4.8675 2.13457 4.8675 2.62857C4.8675 3.07507 5.1145 3.34107 5.4565 3.34107C5.8555 3.34107 5.979 2.97057 6.131 2.41007C6.359 1.58357 6.5965 0.77607 7.613 0.77607C8.5725 0.77607 9.114 1.51707 9.114 2.48607Z" fill="black"/>
</svg>
